<svg width="512" height="512" xmlns="http://www.w3.org/2000/svg"><g transform="translate(-2.474 .955)"><circle style="fill:#369eff;fill-opacity:1;stroke:none;stroke-width:6.0816;stroke-dasharray:none" cx="258.474" cy="255.045" r="250.484"/><g style="fill:#fff;stroke:none"><path style="fill:#fff;stroke:none;stroke-width:.1;stroke-linecap:butt;stroke-linejoin:miter;stroke-dasharray:none;stroke-opacity:1" d="m-42.135 6.207-1.726-3.072c-2.852 1.83-5.78 3.486-8.945 4.613-1.326-.138-1.6.587-1.162 1.435.397.767.85 1.643 1.343 2.378.602 1.096 1.269 1.361 2.029.413.526-1.212 4.773-3.576 8.46-5.767z" transform="matrix(8.05055 0 0 8.05055 510.236 280.627)"/><path style="fill:#fff;stroke:none;stroke-width:.065;stroke-linecap:butt;stroke-linejoin:miter;stroke-dasharray:none;stroke-opacity:1" d="M-42.306 1.332c3.12-2.167 6.61-4.15 10.149-6.107.875 1.423 1.75 2.917 2.626 4.691a109.046 109.046 0 0 1-10.12 6.078c-.974-1.524-1.892-3.067-2.655-4.662zM-29.144-8.147c-.672.505-1.28.946-1.31 1.07-.064.266.207.921.215.979.75 1.704 1.617 3.437 2.88 4.989.13.147.545.706.916.804.535.14 1.333-.235 1.537-.358l4.016-1.988 9.728-5.08c.316-.13.62-.243.858-.255.193-.152.685.667 1.207.485.574-.173.968-.491.517-1.492-1.352-2.992-3.093-5.807-4.876-8.604-.664-1.068-1.273-1.589-1.778-1.167-.38.371-.345.723-.296 1.075.05.385-.016.58-.106.74-.225.54-.704.776-1.173 1.104-4.042 2.637-7.945 4.803-12.335 7.698z" transform="matrix(8.05055 0 0 8.05055 510.236 280.627)"/></g></g></svg>